<svg width="28" height="27" viewBox="0 0 28 27" fill="none" xmlns="http://www.w3.org/2000/svg">
<path d="M12.9729 1.17538C13.3624 0.406603 14.5019 0.40958 14.8921 1.17612C14.8922 1.17624 14.8922 1.17637 14.8923 1.1765L18.2928 7.89881L18.434 8.17798L18.7437 8.22201L26.3531 9.30365L26.3535 9.30371C27.2426 9.42944 27.5561 10.4683 26.9463 11.0471L26.9461 11.0473L21.4409 16.2778L21.2074 16.4996L21.2633 16.8169L22.5653 24.2051C22.5653 24.2052 22.5653 24.2053 22.5654 24.2054C22.7065 25.011 21.8189 25.6918 21.0134 25.2788L21.0133 25.2788L14.206 21.7901L13.9323 21.6499L13.6587 21.7901L6.85137 25.2788L6.84951 25.2797C6.04812 25.694 5.15754 25.0144 5.29928 24.2054C5.2993 24.2053 5.29931 24.2052 5.29933 24.2051L6.60134 16.8169L6.65724 16.4996L6.42371 16.2778L0.918504 11.0473L0.918332 11.0471C0.308579 10.4683 0.622014 9.42944 1.51112 9.30371L1.51155 9.30365L9.12092 8.22201L9.43066 8.17798L9.57188 7.89881L12.9728 1.17561C12.9728 1.17553 12.9729 1.17546 12.9729 1.17538Z" stroke="#FF7070" stroke-opacity="0.8" stroke-width="1.2"/>
</svg>
