<svg width="16" height="14" viewBox="0 0 16 14" fill="none" xmlns="http://www.w3.org/2000/svg">
<path d="M5.26806 4.70161L5.5715 4.66117L5.71685 4.39175L7.66961 0.772121C7.66962 0.772108 7.66963 0.772095 7.66963 0.772083C7.72333 0.672684 7.83925 0.599521 7.99932 0.600002C8.16049 0.600486 8.27775 0.675531 8.33062 0.772542C8.3307 0.772705 8.33079 0.772868 8.33088 0.773031L10.2832 4.39175L10.4285 4.66117L10.7319 4.70161L15.1013 5.28396L15.1017 5.28401C15.2727 5.30669 15.3575 5.40333 15.3867 5.48561C15.4138 5.56191 15.4055 5.64972 15.311 5.73384L15.3108 5.73399L12.1497 8.55005L11.8965 8.77562L11.9591 9.10889L12.7067 13.0865C12.7222 13.1696 12.6936 13.2578 12.5836 13.3302C12.4692 13.4054 12.3118 13.4255 12.1687 13.3567L12.1687 13.3567L8.25987 11.4784L8 11.3535L7.74013 11.4784L3.83135 13.3567L3.82953 13.3575C3.68729 13.4265 3.53095 13.4067 3.41683 13.3315C3.30676 13.259 3.27773 13.17 3.2933 13.0866C3.2933 13.0866 3.29331 13.0865 3.29332 13.0865L4.0409 9.10889L4.10354 8.77562L3.85033 8.55005L0.689214 5.73399L0.689038 5.73384C0.594542 5.64972 0.586213 5.56191 0.613298 5.48561C0.642506 5.40333 0.727294 5.30669 0.898318 5.28401L0.89872 5.28396L5.26806 4.70161Z" stroke="#7876DF" stroke-opacity="0.8" stroke-width="1.2"/>
</svg>
