<svg width="54" height="64" viewBox="0 0 54 64" fill="none" xmlns="http://www.w3.org/2000/svg">
<path d="M26.9998 55.3909C41.2672 55.3909 52.8332 43.2966 52.8332 28.3774C52.8332 13.4582 41.2672 1.36387 26.9998 1.36387C12.7325 1.36387 1.1665 13.4582 1.1665 28.3774C1.1665 43.2966 12.7325 55.3909 26.9998 55.3909Z" fill="#FF6242"/>
<path d="M26.9998 1.36387C12.7915 1.36387 1.1665 13.52 1.1665 28.3774C1.1665 43.2349 12.7915 55.3909 26.9998 55.3909C41.2082 55.3909 52.8332 43.2349 52.8332 28.3774C52.8332 13.52 41.2082 1.36387 26.9998 1.36387V1.36387ZM26.9998 51.3389C13.954 51.3389 3.4915 40.2634 3.4915 26.7566C3.4915 12.9797 13.954 2.03921 26.9998 2.03921C40.0457 2.03921 50.5082 13.1148 50.5082 26.6215C50.5082 40.2634 40.0457 51.3389 26.9998 51.3389V51.3389Z" fill="#E04122"/>
<path d="M27 8.79259C31.2802 8.79259 34.75 7.88552 34.75 6.76658C34.75 5.64764 31.2802 4.74056 27 4.74056C22.7198 4.74056 19.25 5.64764 19.25 6.76658C19.25 7.88552 22.7198 8.79259 27 8.79259Z" fill="#FF866E"/>
<path d="M26.9998 55.3909C41.2672 55.3909 52.8332 43.2966 52.8332 28.3774C52.8332 13.4582 41.2672 1.36387 26.9998 1.36387C12.7325 1.36387 1.1665 13.4582 1.1665 28.3774C1.1665 43.2966 12.7325 55.3909 26.9998 55.3909Z" stroke="#45413C" stroke-miterlimit="10" stroke-linecap="round" stroke-linejoin="round"/>
<path d="M16.0207 31.0788C16.734 31.0788 17.3123 30.474 17.3123 29.7281C17.3123 28.9821 16.734 28.3774 16.0207 28.3774C15.3073 28.3774 14.729 28.9821 14.729 29.7281C14.729 30.474 15.3073 31.0788 16.0207 31.0788Z" fill="#45413C" stroke="#45413C" stroke-miterlimit="10" stroke-linecap="round" stroke-linejoin="round"/>
<path d="M20.929 27.7021C20.929 27.7021 17.054 21.624 12.7915 23.65" stroke="#45413C" stroke-miterlimit="10" stroke-linecap="round" stroke-linejoin="round"/>
<path d="M33.0708 27.7021C33.0708 27.7021 36.9458 21.624 41.2083 23.65" stroke="#45413C" stroke-miterlimit="10" stroke-linecap="round" stroke-linejoin="round"/>
<path d="M37.9792 31.0788C38.6925 31.0788 39.2708 30.474 39.2708 29.7281C39.2708 28.9821 38.6925 28.3774 37.9792 28.3774C37.2658 28.3774 36.6875 28.9821 36.6875 29.7281C36.6875 30.474 37.2658 31.0788 37.9792 31.0788Z" fill="#45413C" stroke="#45413C" stroke-miterlimit="10" stroke-linecap="round" stroke-linejoin="round"/>
<path d="M20.5415 41.8842C22.3498 40.5335 24.5457 39.8582 26.9998 39.8582C29.3248 39.8582 31.6498 40.6686 33.4582 41.8842" stroke="#45413C" stroke-miterlimit="10" stroke-linecap="round"/>
<path d="M35.9123 10.5485C35.5248 12.4394 33.8457 13.655 32.1665 13.2498" stroke="#45413C" stroke-miterlimit="10" stroke-linecap="round" stroke-linejoin="round"/>
<path d="M40.4333 16.7616C38.625 15.546 37.9791 13.1147 39.1416 11.2238" stroke="#45413C" stroke-miterlimit="10" stroke-linecap="round" stroke-linejoin="round"/>
<path d="M32.8125 16.4914C34.75 15.4109 37.075 16.2213 38.1083 18.1123" stroke="#45413C" stroke-miterlimit="10" stroke-linecap="round" stroke-linejoin="round"/>
<path d="M42.4997 37.8321C44.2831 37.8321 45.7288 36.9251 45.7288 35.8061C45.7288 34.6872 44.2831 33.7801 42.4997 33.7801C40.7163 33.7801 39.2705 34.6872 39.2705 35.8061C39.2705 36.9251 40.7163 37.8321 42.4997 37.8321Z" fill="#E04122"/>
<path d="M11.4997 37.8321C13.2831 37.8321 14.7288 36.9251 14.7288 35.8061C14.7288 34.6872 13.2831 33.7801 11.4997 33.7801C9.71626 33.7801 8.27051 34.6872 8.27051 35.8061C8.27051 36.9251 9.71626 37.8321 11.4997 37.8321Z" fill="#E04122"/>
<path opacity="0.15" d="M26.9997 63.2249C38.4136 63.2249 47.6663 62.3178 47.6663 61.1989C47.6663 60.0799 38.4136 59.1728 26.9997 59.1728C15.5858 59.1728 6.33301 60.0799 6.33301 61.1989C6.33301 62.3178 15.5858 63.2249 26.9997 63.2249Z" fill="#45413C"/>
</svg>
