<svg width="54" height="62" viewBox="0 0 54 62" fill="none" xmlns="http://www.w3.org/2000/svg">
<path d="M26.9998 54.6611C41.2672 54.6611 52.8332 42.5667 52.8332 27.6476C52.8332 12.7284 41.2672 0.634026 26.9998 0.634026C12.7325 0.634026 1.1665 12.7284 1.1665 27.6476C1.1665 42.5667 12.7325 54.6611 26.9998 54.6611Z" fill="#FFE500"/>
<path d="M26.9998 0.634026C12.7915 0.634026 1.1665 12.7901 1.1665 27.6476C1.1665 42.505 12.7915 54.6611 26.9998 54.6611C41.2082 54.6611 52.8332 42.505 52.8332 27.6476C52.8332 12.7901 41.2082 0.634026 26.9998 0.634026V0.634026ZM26.9998 50.6091C13.954 50.6091 3.4915 39.5335 3.4915 25.8917C3.4915 12.3849 13.954 1.30936 26.9998 1.30936C40.0457 1.30936 50.5082 12.3849 50.5082 26.0268C50.5082 39.5335 40.0457 50.6091 26.9998 50.6091V50.6091Z" fill="#EBCB00"/>
<path d="M27 8.06275C31.2802 8.06275 34.75 7.15567 34.75 6.03674C34.75 4.9178 31.2802 4.01072 27 4.01072C22.7198 4.01072 19.25 4.9178 19.25 6.03674C19.25 7.15567 22.7198 8.06275 27 8.06275Z" fill="#FFF48C"/>
<path opacity="0.15" d="M26.9997 61.9548C38.4136 61.9548 47.6663 61.0477 47.6663 59.9287C47.6663 58.8098 38.4136 57.9027 26.9997 57.9027C15.5858 57.9027 6.33301 58.8098 6.33301 59.9287C6.33301 61.0477 15.5858 61.9548 26.9997 61.9548Z" fill="#45413C"/>
<path d="M26.9998 54.6611C41.2672 54.6611 52.8332 42.5667 52.8332 27.6476C52.8332 12.7284 41.2672 0.634026 26.9998 0.634026C12.7325 0.634026 1.1665 12.7284 1.1665 27.6476C1.1665 42.5667 12.7325 54.6611 26.9998 54.6611Z" stroke="#45413C" stroke-miterlimit="10" stroke-linecap="round" stroke-linejoin="round"/>
<path d="M23.7705 41.1543H36.6872" stroke="#45413C" stroke-miterlimit="10" stroke-linecap="round" stroke-linejoin="round"/>
<path d="M13.0498 21.8397C14.4706 21.5695 15.8915 21.1643 17.4415 20.3539C18.8623 19.5435 20.154 18.598 21.1873 17.5175" stroke="#45413C" stroke-miterlimit="10" stroke-linecap="round" stroke-linejoin="round"/>
<path d="M40.95 21.8397C39.5292 21.5695 38.1083 21.1643 36.5583 20.3539C35.1375 19.5435 33.8458 18.598 32.8125 17.5175" stroke="#45413C" stroke-miterlimit="10" stroke-linecap="round" stroke-linejoin="round"/>
<path d="M16.6666 28.458C16.6666 29.2684 16.0208 29.9437 15.2458 29.9437C14.4708 29.9437 13.8249 29.2684 13.8249 28.458C13.8249 27.7826 10.0791 26.9722 10.0791 26.9722H15.1166C16.0208 26.9722 16.6666 27.6476 16.6666 28.458Z" fill="#45413C" stroke="#45413C" stroke-miterlimit="10" stroke-linecap="round" stroke-linejoin="round"/>
<path d="M39.9166 28.458C39.9166 29.2684 39.2708 29.9437 38.4958 29.9437C37.7208 29.9437 37.0749 29.2684 37.0749 28.458C37.0749 27.7826 33.3291 26.9722 33.3291 26.9722H38.3666C39.3999 26.9722 39.9166 27.6476 39.9166 28.458Z" fill="#45413C" stroke="#45413C" stroke-miterlimit="10" stroke-linecap="round" stroke-linejoin="round"/>
<path d="M41.8542 39.8036C43.6376 39.8036 45.0833 38.8966 45.0833 37.7776C45.0833 36.6587 43.6376 35.7516 41.8542 35.7516C40.0707 35.7516 38.625 36.6587 38.625 37.7776C38.625 38.8966 40.0707 39.8036 41.8542 39.8036Z" fill="#FFAA54"/>
<path d="M12.1457 39.8036C13.9291 39.8036 15.3748 38.8966 15.3748 37.7776C15.3748 36.6587 13.9291 35.7516 12.1457 35.7516C10.3623 35.7516 8.9165 36.6587 8.9165 37.7776C8.9165 38.8966 10.3623 39.8036 12.1457 39.8036Z" fill="#FFAA54"/>
</svg>
