<svg width="54" height="64" viewBox="0 0 54 64" fill="none" xmlns="http://www.w3.org/2000/svg">
<path d="M26.9998 55.1209C41.2672 55.1209 52.8332 43.0265 52.8332 28.1073C52.8332 13.1882 41.2672 1.0938 26.9998 1.0938C12.7325 1.0938 1.1665 13.1882 1.1665 28.1073C1.1665 43.0265 12.7325 55.1209 26.9998 55.1209Z" fill="#FFE500"/>
<path d="M26.9998 1.0938C12.7915 1.0938 1.1665 13.2499 1.1665 28.1073C1.1665 42.9648 12.7915 55.1209 26.9998 55.1209C41.2082 55.1209 52.8332 42.9648 52.8332 28.1073C52.8332 13.2499 41.2082 1.0938 26.9998 1.0938V1.0938ZM26.9998 51.0688C13.954 51.0688 3.4915 39.9933 3.4915 26.3515C3.4915 12.7096 13.954 1.76914 26.9998 1.76914C40.0457 1.76914 50.5082 12.8447 50.5082 26.3515C50.5082 39.9933 40.0457 51.0688 26.9998 51.0688V51.0688Z" fill="#EBCB00"/>
<path d="M27 8.52253C31.2802 8.52253 34.75 7.61545 34.75 6.49651C34.75 5.37758 31.2802 4.4705 27 4.4705C22.7198 4.4705 19.25 5.37758 19.25 6.49651C19.25 7.61545 22.7198 8.52253 27 8.52253Z" fill="#FFF48C"/>
<path opacity="0.15" d="M26.9997 63.4951C38.4136 63.4951 47.6663 62.588 47.6663 61.4691C47.6663 60.3501 38.4136 59.443 26.9997 59.443C15.5858 59.443 6.33301 60.3501 6.33301 61.4691C6.33301 62.588 15.5858 63.4951 26.9997 63.4951Z" fill="#45413C"/>
<path d="M26.9998 55.1209C41.2672 55.1209 52.8332 43.0265 52.8332 28.1073C52.8332 13.1882 41.2672 1.0938 26.9998 1.0938C12.7325 1.0938 1.1665 13.1882 1.1665 28.1073C1.1665 43.0265 12.7325 55.1209 26.9998 55.1209Z" stroke="#45413C" stroke-miterlimit="10" stroke-linecap="round" stroke-linejoin="round"/>
<path d="M42.4997 36.8867C44.2831 36.8867 45.7288 35.9797 45.7288 34.8607C45.7288 33.7418 44.2831 32.8347 42.4997 32.8347C40.7163 32.8347 39.2705 33.7418 39.2705 34.8607C39.2705 35.9797 40.7163 36.8867 42.4997 36.8867Z" fill="#FFAA54"/>
<path d="M11.4997 36.8867C13.2831 36.8867 14.7288 35.9797 14.7288 34.8607C14.7288 33.7418 13.2831 32.8347 11.4997 32.8347C9.71626 32.8347 8.27051 33.7418 8.27051 34.8607C8.27051 35.9797 9.71626 36.8867 11.4997 36.8867Z" fill="#FFAA54"/>
<path d="M9.8208 20.6786C10.8541 19.8682 12.1458 19.3279 13.4375 19.3279C14.8583 19.3279 16.15 19.8682 17.0541 20.6786" stroke="#45413C" stroke-miterlimit="10" stroke-linecap="round" stroke-linejoin="round"/>
<path d="M44.1791 20.6786C43.1458 19.8682 41.8541 19.3279 40.5625 19.3279C39.1416 19.3279 37.85 19.8682 36.9458 20.6786" stroke="#45413C" stroke-miterlimit="10" stroke-linecap="round" stroke-linejoin="round"/>
<path d="M13.4372 28.7827C14.1505 28.7827 14.7288 28.178 14.7288 27.432C14.7288 26.686 14.1505 26.0813 13.4372 26.0813C12.7238 26.0813 12.1455 26.686 12.1455 27.432C12.1455 28.178 12.7238 28.7827 13.4372 28.7827Z" fill="#45413C" stroke="#45413C" stroke-miterlimit="10" stroke-linecap="round" stroke-linejoin="round"/>
<path d="M40.5622 28.7827C41.2755 28.7827 41.8538 28.178 41.8538 27.432C41.8538 26.686 41.2755 26.0813 40.5622 26.0813C39.8488 26.0813 39.2705 26.686 39.2705 27.432C39.2705 28.178 39.8488 28.7827 40.5622 28.7827Z" fill="#45413C" stroke="#45413C" stroke-miterlimit="10" stroke-linecap="round" stroke-linejoin="round"/>
<path d="M27 44.3155C28.0701 44.3155 28.9375 43.4084 28.9375 42.2895C28.9375 41.1705 28.0701 40.2634 27 40.2634C25.9299 40.2634 25.0625 41.1705 25.0625 42.2895C25.0625 43.4084 25.9299 44.3155 27 44.3155Z" fill="#FFB0CA" stroke="#45413C" stroke-miterlimit="10" stroke-linecap="round" stroke-linejoin="round"/>
</svg>
