<svg width="62" height="62" viewBox="0 0 62 62" fill="none" xmlns="http://www.w3.org/2000/svg">
<path d="M33.7123 52.9052C47.0523 52.9052 57.8664 41.597 57.8664 27.6476C57.8664 13.6982 47.0523 2.38992 33.7123 2.38992C20.3723 2.38992 9.55811 13.6982 9.55811 27.6476C9.55811 41.597 20.3723 52.9052 33.7123 52.9052Z" fill="#FFE500"/>
<path d="M33.7123 2.38992C20.4081 2.38992 9.55811 13.7356 9.55811 27.6476C9.55811 41.5595 20.4081 52.9052 33.7123 52.9052C47.0164 52.9052 57.8664 41.5595 57.8664 27.6476C57.8664 13.7356 47.0164 2.38992 33.7123 2.38992ZM33.7123 49.1233C21.5706 49.1233 11.7539 38.8582 11.7539 26.1618C11.7539 13.4655 21.5706 3.20032 33.7123 3.20032C45.8539 3.20032 55.6706 13.4655 55.6706 26.1618C55.6706 38.7231 45.8539 49.1233 33.7123 49.1233Z" fill="#EBCB00"/>
<path d="M33.7123 9.41344C37.7072 9.41344 40.9457 8.56684 40.9457 7.52249C40.9457 6.47815 37.7072 5.63155 33.7123 5.63155C29.7175 5.63155 26.479 6.47815 26.479 7.52249C26.479 8.56684 29.7175 9.41344 33.7123 9.41344Z" fill="#FFF48C"/>
<path d="M10.2041 51.8247C10.4624 50.7442 11.2374 49.7987 12.3999 49.5285L16.7916 48.448C16.9208 48.448 17.0499 48.3129 17.0499 48.0428C17.0499 47.9077 16.9208 47.7727 16.7916 47.6376L12.3999 46.5571C11.3666 46.2869 10.4624 45.4765 10.2041 44.2609L9.17077 39.6686C9.17077 39.5335 9.0416 39.3985 8.78327 39.3985C8.52493 39.3985 8.52493 39.5335 8.39577 39.6686L7.36243 44.2609C7.1041 45.3414 6.3291 46.2869 5.1666 46.5571L0.774935 47.6376C0.645768 47.6376 0.516602 47.7727 0.516602 48.0428C0.516602 48.1779 0.645768 48.3129 0.774935 48.448L5.1666 49.5285C6.19993 49.7987 7.1041 50.6091 7.36243 51.8247L8.39577 56.417C8.39577 56.5521 8.52493 56.6871 8.78327 56.6871C9.0416 56.6871 9.0416 56.5521 9.17077 56.417L10.2041 51.8247V51.8247Z" fill="white" stroke="#45413C" stroke-miterlimit="10" stroke-linecap="round" stroke-linejoin="round"/>
<path d="M57.6082 7.65756L60.9666 6.44195C61.0957 6.44195 61.2249 6.30688 61.2249 6.17181C61.2249 6.03675 61.0957 5.90168 60.9666 5.90168L58.1249 4.95621C57.7374 4.82114 57.4791 4.551 57.3499 4.1458L56.4457 1.17431C56.4457 1.03924 56.3166 0.904175 56.1874 0.904175C56.0582 0.904175 55.9291 1.03924 55.9291 1.17431L55.0249 4.1458C54.8957 4.551 54.6374 4.82114 54.2499 4.95621L51.4082 5.90168C51.2791 5.90168 51.1499 6.03675 51.1499 6.17181C51.1499 6.30688 51.2791 6.44195 51.4082 6.44195L54.2499 7.38742C54.6374 7.52249 54.8957 7.79263 55.0249 8.19783L55.9291 11.1693C55.9291 11.3044 56.0582 11.4395 56.1874 11.4395C56.3166 11.4395 56.4457 11.3044 56.4457 11.1693L57.6082 7.65756V7.65756Z" fill="white" stroke="#45413C" stroke-miterlimit="10" stroke-linecap="round" stroke-linejoin="round"/>
<path opacity="0.15" d="M33.7121 61.6846C44.3413 61.6846 52.958 60.7776 52.958 59.6586C52.958 58.5397 44.3413 57.6326 33.7121 57.6326C23.083 57.6326 14.4663 58.5397 14.4663 59.6586C14.4663 60.7776 23.083 61.6846 33.7121 61.6846Z" fill="#45413C"/>
<path d="M33.7123 52.9052C47.0523 52.9052 57.8664 41.597 57.8664 27.6476C57.8664 13.6982 47.0523 2.38992 33.7123 2.38992C20.3723 2.38992 9.55811 13.6982 9.55811 27.6476C9.55811 41.597 20.3723 52.9052 33.7123 52.9052Z" stroke="#45413C" stroke-miterlimit="10" stroke-linecap="round" stroke-linejoin="round"/>
<path d="M39.7833 37.7776C38.1041 38.9933 36.0374 39.6686 33.7124 39.6686C31.5166 39.6686 29.4499 38.9933 27.6416 37.7776" stroke="#45413C" stroke-miterlimit="10" stroke-linecap="round"/>
<path d="M48.1793 35.8867C49.8201 35.8867 51.1502 35.0401 51.1502 33.9957C51.1502 32.9514 49.8201 32.1048 48.1793 32.1048C46.5386 32.1048 45.2085 32.9514 45.2085 33.9957C45.2085 35.0401 46.5386 35.8867 48.1793 35.8867Z" fill="#FFAA54"/>
<path d="M19.2457 35.8867C20.8865 35.8867 22.2166 35.0401 22.2166 33.9957C22.2166 32.9514 20.8865 32.1048 19.2457 32.1048C17.605 32.1048 16.2749 32.9514 16.2749 33.9957C16.2749 35.0401 17.605 35.8867 19.2457 35.8867Z" fill="#FFAA54"/>
<path d="M51.0208 32.1048H43.9167C40.5583 32.1048 37.5875 29.5385 37.0708 26.0268L36.1667 19.9487C35.7792 17.7876 37.4583 15.7616 39.6542 15.7616H55.1542C57.2209 15.7616 58.9 17.6526 58.6417 19.8136L57.9959 25.6216C57.4792 29.2684 54.5083 32.1048 51.0208 32.1048V32.1048Z" fill="#656769"/>
<path d="M37.0707 26.0268C37.4582 28.0528 38.4916 29.8087 40.0416 30.8892L54.5082 15.7616H39.5249C37.3291 15.7616 35.7791 17.7876 36.0374 19.9487L37.0707 26.0268V26.0268Z" fill="#87898C"/>
<path d="M51.0208 32.1048H43.9167C40.5583 32.1048 37.5875 29.5385 37.0708 26.0268L36.1667 19.9487C35.7792 17.7876 37.4583 15.7616 39.6542 15.7616H55.1542C57.2209 15.7616 58.9 17.6526 58.6417 19.8136L57.9959 25.6216C57.4792 29.2684 54.5083 32.1048 51.0208 32.1048V32.1048Z" stroke="#45413C" stroke-miterlimit="10" stroke-linecap="round" stroke-linejoin="round"/>
<path d="M16.4042 32.1048H23.3792C26.7376 32.1048 29.7084 29.5385 30.2251 26.0268L31.1292 19.9487C31.5167 17.7876 29.8376 15.7616 27.6417 15.7616H12.1417C10.0751 15.7616 8.39591 17.6526 8.65424 19.8136L9.30008 25.6216C9.94591 29.2684 12.9167 32.1048 16.4042 32.1048V32.1048Z" fill="#656769"/>
<path d="M9.55812 25.6216C9.81645 28.0528 11.2373 30.0788 13.3039 31.2944L28.1581 15.7616H12.5289C10.4623 15.7616 8.78312 17.6526 9.04145 19.8136L9.55812 25.6216V25.6216Z" fill="#87898C"/>
<path d="M16.4042 32.1048H23.3792C26.7376 32.1048 29.7084 29.5385 30.2251 26.0268L31.1292 19.9487C31.5167 17.7876 29.8376 15.7616 27.6417 15.7616H12.1417C10.0751 15.7616 8.39591 17.6526 8.65424 19.8136L9.30008 25.6216C9.94591 29.2684 12.9167 32.1048 16.4042 32.1048V32.1048Z" stroke="#45413C" stroke-miterlimit="10" stroke-linecap="round" stroke-linejoin="round"/>
<path d="M37.3295 16.572C36.2962 16.0318 35.1337 15.6266 33.7129 15.6266C32.4212 15.6266 31.1295 15.8967 30.0962 16.572" stroke="#45413C" stroke-miterlimit="10" stroke-linecap="round" stroke-linejoin="round"/>
</svg>
