<svg width="54" height="62" viewBox="0 0 54 62" fill="none" xmlns="http://www.w3.org/2000/svg">
<path d="M26.9998 55.2014C41.2672 55.2014 52.8332 43.107 52.8332 28.1879C52.8332 13.2687 41.2672 1.17433 26.9998 1.17433C12.7325 1.17433 1.1665 13.2687 1.1665 28.1879C1.1665 43.107 12.7325 55.2014 26.9998 55.2014Z" fill="#FFE500"/>
<path d="M26.9998 1.17433C12.7915 1.17433 1.1665 13.3304 1.1665 28.1879C1.1665 43.0453 12.7915 55.2014 26.9998 55.2014C41.2082 55.2014 52.8332 43.0453 52.8332 28.1879C52.8332 13.3304 41.2082 1.17433 26.9998 1.17433V1.17433ZM26.9998 51.1494C13.954 51.1494 3.4915 40.0738 3.4915 26.5671C3.36234 12.9252 13.954 1.84967 26.9998 1.84967C40.0457 1.84967 50.5082 12.9252 50.5082 26.432C50.5082 40.0738 40.0457 51.1494 26.9998 51.1494V51.1494Z" fill="#EBCB00"/>
<path d="M26.9998 55.2014C41.2672 55.2014 52.8332 43.107 52.8332 28.1879C52.8332 13.2687 41.2672 1.17433 26.9998 1.17433C12.7325 1.17433 1.1665 13.2687 1.1665 28.1879C1.1665 43.107 12.7325 55.2014 26.9998 55.2014Z" stroke="#45413C" stroke-miterlimit="10" stroke-linecap="round" stroke-linejoin="round"/>
<path d="M26.8706 8.60306C31.1508 8.60306 34.6206 7.69598 34.6206 6.57704C34.6206 5.4581 31.1508 4.55103 26.8706 4.55103C22.5904 4.55103 19.1206 5.4581 19.1206 6.57704C19.1206 7.69598 22.5904 8.60306 26.8706 8.60306Z" fill="#FFF48C"/>
<path d="M19.1205 38.5881C18.733 38.5881 18.4747 38.7232 18.2163 38.9933C17.958 39.2634 17.958 39.6686 17.958 40.0738C18.6038 44.6661 22.4788 48.1779 26.9997 48.1779C31.5205 48.1779 35.3955 44.6661 36.0413 40.0738C36.0413 39.6686 36.0413 39.3985 35.783 38.9933C35.5247 38.7232 35.2663 38.5881 34.8788 38.5881H19.1205Z" fill="#FFB0CA" stroke="#45413C" stroke-miterlimit="10" stroke-linecap="round" stroke-linejoin="round"/>
<path d="M34.2328 44.396C32.4244 43.3155 29.8411 42.6401 26.9994 42.6401C24.1578 42.6401 21.5744 43.3155 19.7661 44.396C21.4453 46.6921 24.0286 48.0428 26.9994 48.0428C29.9703 48.1779 32.5536 46.6921 34.2328 44.396Z" fill="#FF87AF" stroke="#45413C" stroke-miterlimit="10" stroke-linecap="round" stroke-linejoin="round"/>
<path d="M49.6042 31.2944C49.7333 31.2944 49.9917 31.0243 49.9917 30.8892C49.9917 30.7541 49.8625 30.484 49.6042 30.484C43.1458 28.5931 42.6292 28.0528 40.8208 21.2994C40.8208 21.1643 40.5625 20.8942 40.4333 20.8942C40.3042 20.8942 40.0458 21.0293 40.0458 21.2994C38.2375 28.0528 37.7208 28.5931 31.2625 30.484C31.1333 30.484 30.875 30.7541 30.875 30.8892C30.875 31.0243 31.0042 31.2944 31.2625 31.2944C37.7208 33.1854 38.2375 33.7256 40.0458 40.479C40.0458 40.6141 40.3042 40.8842 40.4333 40.8842C40.5625 40.8842 40.8208 40.7492 40.8208 40.479C42.6292 33.8607 43.1458 33.1854 49.6042 31.2944Z" fill="white" stroke="#45413C" stroke-miterlimit="10" stroke-linecap="round" stroke-linejoin="round"/>
<path d="M22.8664 31.2944C22.9955 31.2944 23.2539 31.0243 23.2539 30.8892C23.2539 30.7541 23.1247 30.484 22.8664 30.484C16.408 28.5931 15.8914 28.0528 14.083 21.2994C14.083 21.1643 13.8247 20.8942 13.6955 20.8942C13.5664 20.8942 13.308 21.0293 13.308 21.2994C11.4997 28.0528 10.983 28.5931 4.52471 30.484C4.39554 30.484 4.13721 30.7541 4.13721 30.8892C4.13721 31.0243 4.26637 31.2944 4.52471 31.2944C10.983 33.1854 11.4997 33.7256 13.308 40.479C13.308 40.6141 13.5664 40.8842 13.6955 40.8842C13.8247 40.8842 14.083 40.7492 14.083 40.479C15.8914 33.8607 16.408 33.1854 22.8664 31.2944Z" fill="white" stroke="#45413C" stroke-miterlimit="10" stroke-linecap="round" stroke-linejoin="round"/>
<path opacity="0.15" d="M26.8704 61.4145C34.7175 61.4145 41.0788 60.5074 41.0788 59.3885C41.0788 58.2696 34.7175 57.3625 26.8704 57.3625C19.0234 57.3625 12.6621 58.2696 12.6621 59.3885C12.6621 60.5074 19.0234 61.4145 26.8704 61.4145Z" fill="#45413C"/>
</svg>
